<?xml version="1.0" encoding="UTF-8" standalone="no"?>
<!-- Created with Inkscape (http://www.inkscape.org/) -->

<svg
   width="652.21399mm"
   height="664.51904mm"
   viewBox="-5 -5 652.21398 664.51907"
   version="1.1"
   id="svg229"
   sodipodi:docname="nerdCopter-logo.svg"
   inkscape:version="1.2-alpha1 (ddb812e, 2022-04-07)"
   xml:space="preserve"
   xmlns:inkscape="http://www.inkscape.org/namespaces/inkscape"
   xmlns:sodipodi="http://sodipodi.sourceforge.net/DTD/sodipodi-0.dtd"
   xmlns="http://www.w3.org/2000/svg"
   xmlns:svg="http://www.w3.org/2000/svg"><sodipodi:namedview
     id="namedview231"
     pagecolor="#505050"
     bordercolor="#ffffff"
     borderopacity="1"
     inkscape:pageshadow="0"
     inkscape:pageopacity="0"
     inkscape:pagecheckerboard="1"
     inkscape:deskcolor="#505050"
     inkscape:document-units="mm"
     showgrid="false"
     inkscape:zoom="0.38128508"
     inkscape:cx="1153.9922"
     inkscape:cy="1349.384"
     inkscape:window-width="1523"
     inkscape:window-height="1247"
     inkscape:window-x="235"
     inkscape:window-y="27"
     inkscape:window-maximized="0"
     inkscape:current-layer="g2297" /><defs
     id="defs226" /><g
     inkscape:label="Logo"
     inkscape:groupmode="layer"
     id="layer1"
     transform="translate(-79.375,-68.513992)"
     style="display:inline"><circle
       style="display:inline;fill:#ffffff;stroke-width:0"
       id="path285"
       cx="396.875"
       cy="-396.875"
       transform="rotate(90)"
       r="317.5"
       inkscape:label="outer-white" /><circle
       style="display:inline;fill:#000000;stroke-width:0"
       id="path339"
       cx="396.875"
       cy="396.875"
       r="306.91666"
       inkscape:label="black" /><circle
       style="display:inline;fill:#ffffff;stroke-width:0"
       id="path447"
       cx="396.875"
       cy="396.875"
       r="296.33334"
       inkscape:label="inner-white" /><circle
       style="display:inline;fill:#00cc00;fill-opacity:1;stroke-width:0"
       id="green"
       cx="540.25415"
       cy="-152.13483"
       r="285.75"
       transform="rotate(60.727147)" /><g
       id="g2297"
       transform="matrix(-2.753741,-2.2498971,2.2498971,-2.753741,397.47444,963.88238)"
       style="display:inline"
       inkscape:label="prop"><path
         fill="#ffffff"
         d="m 482.98143,566.35128 h 1.66756 v 2.18868 h -1.66756 z m 4.79426,16.67572 4.32525,0.88589 0.4169,-2.13657 -4.32525,-0.88589 z m -27.98392,-2.86615 v 2.18868 h 2.1887 v -2.18868 z m 35.33166,3.28302 h 1.09434 v -1.09434 h -1.09434 z m -24.85724,1.14647 h 3.33517 v -2.18869 h -3.33517 z M 535.9268,561.9739 h 3.85626 v -1.66757 h -3.85626 z m -28.14026,19.28129 h 1.66758 v -1.09434 h -1.66758 z m -13.75746,-15.99825 h 2.18869 v -2.18869 h -2.18869 z m 13.75746,7.71251 h 1.66758 v -2.18868 h -1.66758 z m 31.99652,-13.75746 h 3.33514 v -1.66757 h -3.33514 z m -36.94712,17.0926 h -2.76191 v 2.18869 h 2.76191 z m 0,7.13928 h 3.33514 v -1.09434 h -3.33514 z m 92.65441,-80.5124 h -4.42948 v 2.18869 h -1.66759 v 1.66758 h 3.85628 v -1.09436 h 2.18868 v -2.76191 z m 6.09705,-26.47268 h -6.04493 v 3.33514 h 2.18869 3.85624 z m -2.24081,67.27605 h 2.1887 v -2.76191 h -2.1887 z m -11.56876,-54.5087 1.66757,-0.7817 c 0,0 1.56335,0.20847 1.66758,0.93801 0.10421,0.72957 1.66756,1.98025 1.66756,1.98025 l 0.57324,-2.50136 c 0,0 2.24078,-2.18867 2.18869,-1.35489 -0.0522,0.83379 0,2.7619 0,2.7619 l 2.18869,-0.93802 2.7619,-2.03234 -2.7619,-1.56334 -2.18869,-1.7197 v -1.51123 l 2.18869,-2.76191 -3.59571,1.09436 -2.76192,3.07458 -1.92813,1.87601 c 0,-0.57322 -1.66757,0 -1.66757,0 l -1.35489,1.92814 c 0,0 -0.20846,1.04222 0,1.51124 0.20844,0.46898 1.35489,0 1.35489,0 z m 41.89772,-0.0522 h -3.85625 v 2.1887 h 3.85625 z m -17.97849,46.37933 -0.72958,-0.83379 -4.58581,3.96049 0.72957,0.83377 z m -149.66449,49.037 h 2.18869 v -2.18868 h -2.18869 z m 130.69588,-73.37313 h 2.7619 v -2.76191 h -2.7619 z M 579.4921,478.12632 h -2.76193 v 2.7619 h 2.76193 z m -193.07345,54.35233 c -0.62535,0.4169 -2.81403,0.62535 -2.81403,0.62535 0,0 -2.81403,-1.92812 -3.64781,-2.13657 -0.88589,-0.20844 -3.02246,-3.1267 -3.6478,-2.65769 -0.62535,0.469 -0.93802,1.98024 -0.93802,1.98024 l -1.876,-2.03235 -3.59572,0.0522 v 2.76191 c 0,0 -4.58581,-0.10421 -4.79424,0 -0.20848,0.10421 -2.34505,2.2408 -2.34505,2.2408 0,0 -1.51123,2.34501 0,2.81403 1.51124,0.41688 2.44925,1.09434 3.28305,1.30279 0.83378,0.20844 4.89849,1.71967 4.89849,1.71967 l 4.32525,1.7197 c 0,0 2.13656,1.30277 2.60558,1.92811 0.41688,0.62534 3.38726,0 3.38726,0 l 3.59569,-1.09433 v -2.91826 l 3.85626,-2.03234 v -1.8239 c -0.0522,0 -1.66759,-2.91826 -2.29291,-2.44927 z m 210.16604,-33.40351 v -1.66757 h -3.43937 l 0.93802,-1.19859 1.3549,-1.56334 h -2.18868 l -1.92815,1.56334 c 0,0 -2.345,-1.14644 -1.92813,0.10422 0.41691,1.25068 -0.88589,0.20844 0.41691,1.25068 0.26055,0.26056 0.57322,0.36479 0.88589,0.46901 l -1.45912,2.65768 1.82391,1.09436 c 0,0 0.52111,-1.04223 0.26054,-1.87601 -0.26054,-0.8338 2.6056,0 4.11683,0 1.51123,0 1.14645,-0.8338 1.14645,-0.8338 z m 1.09434,-7.71252 h -2.18868 v 1.66758 h 2.18868 z m 21.5221,34.18521 h 3.33513 v -2.76193 h -3.33513 z m -67.8493,29.23459 h -1.66758 v 2.76191 h -3.33514 v 1.66758 h 7.19141 v -1.66758 h -2.18869 z m 20.42775,-17.66582 v -1.66757 h -2.18868 v 1.66757 z m -37.52034,20.42773 h -1.66758 v 2.76192 h 1.66758 z m -1.61546,-3.85623 h -2.18869 v 2.18868 h 2.18869 z m -4.42949,12.14199 h 2.18869 v -1.66758 h -2.18869 z m 55.13407,-67.8493 h 1.66756 v -3.33515 h -1.66756 z m 42.31459,15.47714 0.93801,0.57323 3.28304,-5.10693 -0.938,-0.57322 z m 4.22105,-17.14471 -0.46902,-3.33514 -1.56334,1.7718 c 0,0 -0.26055,2.7619 -0.0522,3.23091 0.20846,0.469 -0.88589,-0.62533 0.20846,0.41689 1.09432,1.09435 1.71967,2.6577 1.71967,3.38727 0,0.67743 -0.36478,1.66755 0.0522,2.44924 0.4169,0.78166 1.56336,0.83378 1.56336,0.83378 v -4.9506 z m -10.68287,12.14199 h 4.9506 v -3.33513 h -4.9506 z m -3.28304,20.94887 h 1.66757 v -2.18869 h -1.66757 z m -51.3299,8.85898 h 2.18867 v -2.76192 h -2.18867 z m 18.76017,-18.76017 h 3.33513 v -2.18869 h -3.33513 z m -18.76017,45.18073 4.48158,2.13659 0.46902,-0.99012 -4.48162,-2.13657 z m 50.02712,7.1914 c -0.62534,0.20845 -6.67029,1.3028 -6.67029,1.3028 l -1.92813,2.60559 h 2.7098 c 0,0 2.24079,0.20843 2.03236,1.30277 -0.20845,1.09435 -1.71969,3.02248 -1.71969,3.02248 0,0 -0.88591,0.41689 -1.09434,0 -0.20844,-0.41691 -2.13657,-1.56335 -2.13657,-1.56335 l -1.51124,1.66758 h -0.52112 v 2.18868 l -1.87602,2.08446 v 0.10421 l -0.41688,1.92813 1.92812,3.02247 -3.43937,-1.71969 -2.13658,-3.23091 -1.92812,-4.32526 -2.34502,-2.81402 c 0,0 -2.13657,3.85625 -2.13657,4.5337 0,0.67745 -5.57593,7.55618 -5.57593,7.55618 0,0 -4.74216,5.3675 -4.74216,6.25339 0,0.88589 -1.51123,-1.7197 -1.51123,-1.7197 l 3.02246,-3.85624 6.67029,-7.97309 3.2309,-6.25338 -0.41687,-2.81402 -0.88592,-4.32526 -2.34502,-2.60559 -2.13657,-0.20844 -0.62533,1.71969 -1.09435,2.13657 -1.92815,0.20845 -1.71967,3.43936 2.13658,-0.20844 -3.6478,2.60557 -1.09436,-2.81404 1.71969,-2.345 -1.30278,-1.92813 -2.34504,1.51123 v 0.99013 l -1.66756,-4.01259 v -2.08447 l -0.72957,-4.58583 -0.88589,-3.02247 -2.81402,-1.19856 v 2.18869 h -3.85627 v -3.64782 l -2.55347,1.56335 -0.20844,-2.81403 -1.92813,-3.43937 -2.13658,1.51125 -3.23093,-0.41689 -3.43936,-0.20845 -1.71967,-1.51124 -1.09435,0.62533 -2.39713,-0.31267 v 1.45914 h -1.66758 v -2.18869 h 0.26058 l -1.7718,-1.98024 1.09435,-1.92814 -1.92813,-1.45912 -1.51124,2.60559 h -2.70981 l -2.24079,-1.14647 0.8859,-1.92812 -2.13657,-1.09434 -0.20845,2.81402 -3.02248,-0.62533 0.20844,3.6478 -1.98022,1.09435 -0.26058,-3.02247 v -2.50137 c 0,0 -1.61545,-2.44923 -1.82391,-1.8239 -0.20843,0.62534 -0.88589,2.2408 -0.88589,2.2408 l -1.71968,-2.08445 h -3.33515 l 1.8239,-1.45914 -1.92811,-2.13658 -3.02247,-1.71968 -0.20846,-2.13655 0.62535,-2.60559 0.88589,-4.32527 -2.34501,-3.43937 c 0,0 -1.40702,3.85625 -1.19858,4.53371 0.20846,0.62534 0.99012,3.02248 0.99012,3.02248 v 3.12671 l -2.18868,-0.10422 -2.81403,0.41691 -0.20844,3.43936 c 0,0 1.09433,0.20843 1.3028,1.09433 0.20844,0.88589 2.34501,2.13657 2.34501,3.02247 0,0.88591 1.30278,2.34502 2.13656,2.34502 0.83381,0 3.64783,1.51123 3.64783,1.51123 l 1.92813,-1.92812 2.13658,0.62533 c 0,0 -0.20847,2.81403 -0.20847,3.43936 0,0.62535 0.62534,3.43937 0.88592,4.06471 0.20844,0.62534 0.20844,1.92813 0,2.60558 -0.20846,0.62535 -0.41691,3.02247 -0.41691,3.02247 l -2.81401,-1.51123 0.62533,-3.43936 -2.34503,1.92812 c 0,0 -1.14645,0.41691 -1.40699,0.88589 -0.46902,-0.938 -1.61548,-2.81401 -1.61548,-2.81401 l -0.62534,2.60558 2.6056,2.81403 -0.20847,2.60557 0.88592,1.71969 1.71967,3.85625 0.8859,2.34503 3.85626,-1.71968 1.71966,-2.1366 1.7197,-2.345 1.92814,-1.09436 1.71968,1.30279 -3.23092,2.13657 -4.53372,4.53373 c 0,0 -2.13657,1.09433 -2.81402,1.92812 -0.62535,0.8859 -2.34502,1.3028 -3.02247,2.13658 -0.62533,0.88589 -5.83652,3.23093 -6.46184,3.64781 -0.62535,0.4169 -4.9506,2.34503 -4.9506,2.34503 l 0.41688,-3.02249 -0.62532,-1.71967 -1.3028,-2.34504 0.41689,-2.13656 -0.52113,-2.60557 1.61548,-1.92814 v -2.86613 l -2.18869,-3.38725 0.88589,-2.34503 -1.92811,-0.62534 c 0,0 -0.88592,1.92812 -0.4169,2.81402 0.46899,0.88589 1.09434,3.23093 1.09434,3.23093 l -1.40701,1.51123 -2.55347,-1.92813 v -2.50135 l 0.26055,-2.44925 2.03237,-2.34501 -2.03237,-2.1366 -1.19857,-1.30277 c 0,0 -1.09432,0.88589 -1.09432,1.92812 0,1.04223 -0.20846,1.92812 -0.20846,1.92812 l -2.34502,-1.92812 0.8859,2.81403 0.62533,2.13659 -0.41688,3.85624 -1.09435,2.13658 -2.34502,2.13657 1.09435,-5.36749 -0.8859,-4.0647 -1.71969,-1.51122 -1.30279,1.71966 -1.51124,1.92814 -2.13657,0.41689 -1.92812,-1.30279 -0.62535,-1.71969 -1.09433,-1.71967 -2.1366,2.34501 -0.41687,1.30278 -2.60559,0.62535 -1.92813,1.30279 2.34503,2.60559 -1.3028,0.88588 -1.30278,-0.20845 -0.41691,1.51125 1.51126,2.81403 -3.02249,-1.71969 -1.14645,-1.71968 -2.2408,1.51123 v 1.87603 l -2.18868,1.14644 v 3.85627 l -0.62535,3.69992 -2.345,0.41689 -4.53372,1.7718 2.34503,-3.17882 h -2.60559 l 2.34502,-2.29291 -0.62535,-2.60556 -3.43936,1.71967 -1.51123,-1.3028 -0.8859,3.23092 -1.51123,1.30279 -2.81403,-3.02246 -3.43935,-1.3028 c 0,0 0.15638,-0.52112 0.20843,-0.88588 -0.20843,0.88588 -3.85625,0.62534 -3.85625,0.62534 l -2.60558,-1.09436 -0.20844,-2.81403 c 0,0 0.41687,-2.34501 -0.20846,-2.60558 -0.62534,-0.20845 -2.60556,-1.09434 -2.60556,-1.09434 l -0.41691,5.83649 -1.92812,-0.20843 -4.53371,-1.30279 -5.83651,-0.62535 -5.57593,-2.60558 -3.90837,-4.0647 -3.02248,-1.92812 3.02248,-0.4169 3.43937,-0.62533 c 0,0 1.09433,-3.02247 1.71967,-3.64782 0.62534,-0.62533 2.34503,-1.92812 2.34503,-1.92812 l 0.41688,3.2309 c 0,0 -0.20843,1.92814 0.8859,2.13659 1.09435,0.20845 3.02248,-0.4169 3.02248,-0.4169 l 0.20844,2.34502 c 0,0 0,4.0647 0.62534,4.32528 0.62534,0.20844 2.81402,-0.41691 3.43937,-0.88592 0.62534,-0.41688 0.0522,-1.9281 1.19856,-2.13658 1.14647,-0.20843 0.57322,-2.60555 0,-3.02245 -0.57322,-0.4169 -2.7098,-3.23093 -3.33513,-3.43937 -0.62535,-0.20845 -3.02247,-2.81402 -3.02247,-2.81402 l -2.81402,-2.60559 0.88589,-2.34502 1.30278,-2.60558 -4.53371,1.71969 -1.09433,-4.0647 -0.20847,-4.74216 3.64784,-1.71969 -1.09437,-3.6478 -0.62532,-3.85627 c 0,0 0.62532,-3.85624 0.88589,-4.53369 0.20845,-0.62535 -2.13658,4.0647 -2.13658,4.0647 0,0 0.62534,4.06469 0.8859,4.74215 0.26055,0.67744 -2.13657,2.81404 -2.13657,2.81404 l -0.8859,2.81401 -0.20844,3.85625 c 0,0 -0.20846,1.71969 -1.09436,2.60559 -0.88589,0.88589 -3.43936,1.30278 -3.43936,1.30278 l -1.92813,2.60557 -0.62535,-2.60557 2.34505,-2.13656 -2.13657,-2.81404 c 0,0 -2.34503,1.30278 -2.6056,1.92813 -0.20843,0.62533 -2.34502,1.71969 -3.02246,1.71969 -0.62534,0 -3.43936,-0.62534 -3.43936,-0.62534 0,0 -1.71969,-1.92813 -1.09437,-2.34504 0.62535,-0.41687 2.34505,-2.44923 2.34505,-2.44923 l -1.30279,-1.35489 h -2.6056 l -2.13657,0.36476 c 0,0 0.20844,-2.13657 0.20844,-2.81402 0,-0.67744 -0.88589,-4.74215 -0.88589,-4.74215 l -2.13658,-3.02248 -2.81402,0.88589 -3.28303,-0.62533 1.14646,-1.92812 0.41688,-4.0647 -0.41688,-4.32529 -8.18153,-0.20843 -7.55618,1.92813 -2.13656,1.3028 -1.51124,-0.88591 1.30279,-1.92812 -1.30279,-2.13657 c 0,0 -1.66758,-1.45914 0,-1.45914 1.66755,0 2.76191,-0.88589 2.76191,-0.88589 v -1.87603 l -3.49149,-1.77178 c 0,0 -1.66757,-0.88589 -2.50135,-0.20845 -0.83378,0.67745 -2.60558,1.92812 -2.60558,1.92812 l -3.02248,-1.71967 -1.71966,2.08445 -1.30279,1.87603 h -4.11681 l -3.59571,4.16893 -3.02247,1.09433 v -1.92813 l -1.98025,-0.20845 -2.345,1.3028 c 0,0 -1.09437,1.51124 0,1.92814 1.09432,0.41687 3.02246,0.20843 3.02246,0.20843 l 1.30279,1.3028 c 0,0 1.92813,0.20844 1.92813,0.88589 0,0.67745 -0.88589,2.60559 -0.88589,2.60559 0,0 -1.3028,0.20843 -0.20846,2.13658 1.09435,1.92813 3.02248,2.60558 3.02248,2.60558 l 3.43936,-0.41691 1.51123,0.41691 -2.81402,2.13656 -1.3028,1.3028 c 0,0 -5.83648,-0.67745 -7.08716,0.20845 -1.3028,0.88588 -8.38996,4.0647 -8.38996,4.0647 h -6.30551 l -8.9632,-0.36478 -12.03777,-3.43937 -3.02247,-0.4169 -1.51124,-2.34501 -1.30278,1.71966 -5.36749,-1.92811 -29.70361,-12.50678 -11.6209,-2.81402 -8.28575,0.88589 -2.03234,-2.60558 v 2.86614 l -8.44208,-0.52111 c 0,0 -3.85626,-1.7197 -4.74215,-1.09436 -0.8859,0.62534 -1.51124,0.8859 -3.43937,1.09436 -1.92813,0.20844 -10.10965,1.92811 -10.10965,1.92811 0,0 -5.15904,0 -6.46183,0.62533 -1.3028,0.62535 -5.47172,2.65771 -5.47172,2.65771 0,0 -1.51124,2.34501 -1.30278,3.02247 0.20844,0.67745 0,4.16893 0,4.16893 l -1.71969,-3.12669 -2.50135,-6.2534 -1.66758,-3.23092 v -3.90836 l 3.33514,-1.25068 4.53371,-2.81402 3.43937,-7.76463 -0.62535,-3.75204 -1.51123,-2.50136 3.02247,-3.64782 3.23093,-2.81402 -1.04223,-2.13658 v -2.55347 l 1.66756,-1.09433 v -2.76191 l -1.09434,-4.32527 v -2.81403 l 0.88589,-7.08717 -2.60557,-0.62535 -1.82391,-1.30278 -0.31267,-2.34501 v -4.63793 l 2.97037,-2.91826 1.45912,-2.60559 v -6.61818 l -2.18869,-1.77178 v -2.65767 c 0,0 0.62534,-2.50136 1.25068,-2.50136 0.62534,0 3.02246,-0.20847 3.02246,-0.20847 l -0.20844,-5.15902 1.92812,-1.92815 3.85627,-4.53371 0.62533,-3.6478 0.62534,-2.60559 1.92813,-3.2309 1.71969,-1.92814 -0.88589,-3.23093 0.62534,-3.43936 1.30276,-2.34501 0.88593,-1.51123 -1.3028,-2.13659 -1.92813,-3.1267 c 0,0 -0.20844,-2.50136 0.4169,-2.50136 0.62534,0 3.69992,0 3.69992,0 v -2.08446 l -0.62535,-2.81403 -1.51123,-2.13657 c 0,0 -0.88591,-1.92812 0,-2.34503 0.88591,-0.41687 1.30278,-2.60556 1.30278,-2.60556 l -0.41687,-3.64782 -2.34504,-0.8859 -1.71967,-3.6478 c 0,0 -0.52113,-1.92814 -0.31268,-3.02247 0.20844,-1.09434 0.78168,-2.60558 0.78168,-2.60558 v -1.25069 h -2.18869 l 0.46902,-3.12669 c 0,0 1.30278,-2.39713 0.62532,-2.39713 -0.62532,0 -2.7619,0 -2.7619,0 l -0.26057,-1.61546 1.30278,-1.71969 -0.62533,-1.30279 0.4169,-2.50135 1.51123,-1.66757 h -1.7718 l -2.7619,2.03235 -2.18869,-0.41688 v -3.23093 l -3.1267,-2.03236 0.62534,-1.8239 h 2.50136 l 3.54358,-1.71968 3.43936,-1.56335 -2.81403,-1.14647 c 0,0 -2.50136,-0.57321 -2.50136,0 0,0.57326 -1.56333,2.18869 -1.56333,2.18869 h -2.86613 l -0.15633,-2.44923 0.62534,-0.93802 1.51123,-3.02246 2.13659,-2.81403 -2.13659,-1.09435 c 0,0 -1.09434,1.3028 -1.30279,2.13659 -0.20844,0.88589 -1.92813,3.02246 -1.92813,3.02246 l -2.03235,1.51124 -1.14645,-2.81404 v -2.97033 l 1.66756,-3.90839 1.45913,-2.81402 -3.69992,3.02247 v -4.58582 l 0.26055,-2.97034 -2.60556,-6.04497 -4.95061,-5.57593 -2.6577,-3.02248 v -3.33513 h -2.18867 v 2.18868 l -2.34504,-2.18868 -3.12668,-1.61547 v -1.71967 l -1.66758,-1.7197 -2.76191,-2.65768 V 198.33923 l 238.61895,1.25068 -0.57322,2.81402 -1.92814,2.81403 0.8859,3.85627 2.81402,0.41689 2.13657,-0.88589 0.26056,-7.08719 3.43936,0.20846 0.8859,2.81402 1.51125,3.6478 -1.92813,2.34502 -1.30279,3.43937 -3.23093,0.88591 c 0,0 -1.71967,1.30277 -1.71967,2.13657 0,0.83378 -0.26055,8.44208 -0.26055,8.44208 l 5.15903,0.20843 3.02246,1.92814 -0.41687,1.92814 -3.64782,2.34501 -2.86612,2.81403 v 4.01258 l 1.56334,1.56335 2.81403,-0.20844 3.6478,-1.51123 1.51124,-2.81403 1.51122,1.30279 c 0,0 -0.88589,1.51124 -1.51122,2.13658 -0.62535,0.62533 -2.13658,1.51124 -1.92815,2.34501 0.20848,0.88591 -0.41687,1.7718 -1.30277,2.44927 -0.8859,0.62532 -2.34502,2.44923 -2.34502,2.44923 h 3.23092 c 0,0 2.76192,-0.15639 2.76192,0.52111 0,0.62534 -0.20847,3.02247 -0.20847,3.02247 l -2.13658,-1.71968 -2.81402,-0.4169 c 0,0 -2.34501,-0.41688 -2.03234,0.20846 0.31267,0.62534 0,3.64781 0,3.64781 0,0 1.82391,0.41689 2.65769,1.30279 0.8859,0.88589 3.64782,1.51123 4.11682,2.13658 0.4169,0.62532 3.23092,-0.41691 3.23092,-0.41691 0,0 -0.8859,3.02249 -1.09435,3.85627 -0.20844,0.8859 -0.62535,4.74215 0.20845,4.74215 0.83378,0 4.5337,1.51124 4.5337,1.51124 l 3.85627,-0.62535 c 0,0 1.71967,-3.6478 1.45912,-2.34502 l -1.25068,4.95062 -2.60559,3.02246 -2.08445,0.20843 -2.08446,0.20846 v 2.7098 c 0,0 0.26055,1.82391 -0.15638,2.86612 -0.41688,1.04224 -1.71967,3.43937 -1.71967,3.43937 l -0.8859,-3.02246 -2.81404,-0.62534 -2.60557,1.04223 -3.85627,2.34502 h -2.86614 l -0.99011,6.3055 c 0,0 1.51124,0.41691 2.60557,0.88589 1.09436,0.4169 3.64783,-0.62533 3.64783,-0.62533 l 2.34501,0.41689 1.30279,-3.85626 2.34502,0.88589 1.51124,2.34504 c 0,0 -1.09434,2.13656 -1.71969,2.34501 -0.62533,0.20846 -1.92813,1.71969 -1.92813,1.71969 0,0 -1.51123,0.62534 -1.71967,1.3028 -0.20845,0.62534 -1.30279,3.2309 -1.30279,3.2309 l -2.2408,-1.30278 -1.61547,-1.92812 -1.92813,0.62534 0.62535,2.81402 2.91825,1.09433 2.2408,1.09436 -0.20844,2.34501 -2.03236,1.09435 -4.84638,1.51123 -0.88591,2.60559 -0.20843,2.60557 -3.6478,3.43937 -2.81404,3.02248 0.62535,3.43937 -1.92814,1.30276 -1.09436,-3.2309 -1.30276,-1.09436 -3.0225,1.3028 -1.51123,5.36749 -0.88589,3.64781 -2.13657,3.23093 0.20844,7.08716 -1.51124,1.92813 -1.92812,1.09436 -1.3028,-0.88591 -2.81402,-1.09434 c 0,0 -1.71967,-0.62533 -1.92813,0.20844 -0.20845,0.8859 1.30278,3.02248 1.30278,3.02248 0,0 2.13658,1.30278 3.43937,1.30278 1.3028,0 3.64783,0.20846 3.64783,0.20846 l -1.30279,3.43937 -3.23094,0.88589 -3.43935,0.62534 c 0,0 -1.98025,2.81402 -1.51124,3.43937 0.46899,0.62533 1.3028,6.67029 1.3028,6.67029 l 2.81401,4.32525 -1.30278,2.13657 -2.81403,-0.88589 -1.04224,-3.64782 c 0,0 -2.13656,-2.60557 -2.13656,-1.92811 0,0.62533 -0.8859,3.43936 -0.8859,3.43936 l 1.40701,3.2309 2.44925,4.32526 v 3.64783 l -2.76193,0.88589 -6.46183,0.4169 -1.92814,1.09434 c 0,0 0.8859,1.92812 1.51124,2.34503 0.62534,0.41687 2.60559,3.2309 2.81402,3.85624 0.20848,0.62535 -0.88589,4.9506 -0.88589,4.9506 l -0.41688,2.34504 2.81402,3.43935 1.51125,3.23093 -1.92814,1.92811 -2.13657,1.30279 -2.03237,1.19857 h 158.83614 v 2.76192 l -0.93802,1.25069 0.93802,3.43936 -2.44926,1.30277 -0.41688,2.34503 -1.19858,2.60559 -0.31267,2.81402 v 2.81404 h -2.18869 l -1.25067,2.345 c 0,0 -0.20843,1.51123 0.4169,2.13658 0.62534,0.62534 0.20845,2.60559 0.20845,2.60559 l -1.51125,1.51123 0.4169,3.43936 -1.30278,1.7197 1.56335,1.71967 1.35491,1.09435 v 2.7619 l 0.72954,2.60558 c 0,0 0.41691,0.88591 0.41691,1.51124 0,0.62535 1.51122,1.66756 1.51122,1.66756 l 1.09436,1.87602 h 1.82389 l 1.09435,3.96049 c 0,0 2.29291,0.20845 2.08447,0.8859 -0.20846,0.62534 1.77178,2.81403 1.77178,2.81403 v 3.96047 l 1.19856,3.33513 2.34504,1.92813 0.8859,4.95061 c 0,0 -0.62535,3.43935 0,4.11682 0.62534,0.62533 1.92812,0.4169 1.92812,1.51123 0,1.09434 1.71968,4.0647 1.71968,4.0647 l 3.85627,0.88592 -1.92815,2.08445 -1.92812,1.40701 h -2.55348 l -2.60556,2.76192 -1.92813,3.23091 -1.71969,0.88589 -1.35489,-0.88589 -1.7718,1.92813 v 1.98025 l 1.19856,2.39713 -3.43937,-1.8239 h -4.89848 c 0,0 -2.39714,1.98025 -2.39714,2.81403 0,0.83377 0.4169,2.50135 0.4169,3.38724 0,0.8859 2.34502,3.17881 2.34502,3.17881 h 4.01259 l 2.44924,-1.14645 1.30279,1.14645 -2.13657,2.50135 4.06471,4.11682 3.02246,1.09434 5.57594,-1.51124 0.88592,-4.0647 0.88589,-2.345 0.41688,-5.15906 2.2408,-2.34501 3.9605,-1.92814 v -2.34503 c 0,0 2.29288,-0.41688 2.50135,0.20845 0.20843,0.62535 2.44925,1.51124 2.44925,1.51124 v 2.7098 l -2.55348,1.61545 4.01259,-2.34502 h -0.31268 l 1.66758,-2.55345 h 2.13657 l 0.83378,1.66755 -0.83378,1.09436 -1.92812,-0.10421 0.67745,1.19856 1.51124,1.51123 -2.81404,-0.41687 -2.345,1.92812 3.2309,2.13657 1.92814,3.23092 -1.09435,3.02248 2.50136,0.15639 v -2.39713 h 2.76191 v 2.18868 h -2.18868 0.36479 c 0,0 -1.09436,1.71967 0,2.34501 1.09433,0.62535 2.345,2.34504 2.345,2.34504 l -1.09432,1.09433 -1.92814,-1.92811 -1.92814,1.8239 2.34502,3.1267 h 3.64782 l 1.09434,3.33513 h -3.28303 -3.33515 -2.76191 l -1.407,1.66758 c 0,0 -1.35491,-1.66758 -1.35491,0 0,1.09432 -0.83378,2.18869 -0.36478,2.81402 0.46902,0.62535 2.13656,3.2309 2.13656,3.2309 l -2.13656,2.1366 -0.8859,0.8859 -0.62533,-3.0225 -1.3028,-1.9281 -0.41688,-3.64782 -1.51125,-2.13658 0.41691,3.02247 -1.71968,1.30279 0.41688,2.13657 -0.62535,2.34503 c 0,0 -1.30279,0.62534 -0.62533,1.92814 0.62533,1.30278 1.51122,2.34501 1.51122,2.34501 l -3.6478,-1.71968 -1.71965,-1.71969 2.13658,-1.30279 0.41685,-2.81403 -1.09431,-1.09433 -2.13658,-1.92813 -1.09435,2.34502 -1.30279,-2.34502 -1.51122,-2.34502 -1.09435,-2.81402 c 0,0 -2.34503,0 -2.34503,0.88589 0,0.8859 0.8859,2.60557 0.8859,2.60557 l 0.88592,3.02249 1.71967,1.51122 1.51123,1.71967 0.62533,1.92814 -0.62533,2.13657 -0.62535,1.92814 -2.13656,-1.51124 0.62533,3.43937 -1.51123,-0.93801 -2.03235,0.78168 v 0.0522 h -0.10422 -1.56333 -0.57322 l -1.56336,-0.93801 -0.20845,1.09435 2.34503,4.37737 v -2.29292 h 5.5238 v 2.76192 h -5.26325 l 0.88591,1.61547 2.34502,3.33515 3.6478,2.24077 h 2.81403 l 1.92811,3.28304 2.13657,1.19856 -0.62534,2.7098 h -1.8239 l 1.14647,2.76193 h 3.28302 l 1.66756,0.36477 v -2.03235 h 3.33515 v 2.76192 l 1.87602,0.4169 3.43936,2.81402 4.06472,1.3028 0.62532,-2.81403 3.64781,-0.20846 c 0,0 1.92814,2.60559 1.92814,3.02249 0,0.41688 -1.92814,2.345 -1.92814,2.345 0,0 -1.92813,1.3028 -1.92813,1.92815 0,0.62533 -0.52111,2.345 0.31267,3.02245 0.88589,0.62535 3.33514,1.92815 3.33514,1.92815 v -2.1887 l 0.20846,-3.38725 2.13657,-2.34503 2.81403,-0.88589 c 0,0 -1.51124,-1.92813 0,-1.51125 1.51123,0.41691 3.07457,2.81404 3.07457,2.81404 0,0 2.24081,1.51123 2.24081,2.60558 0,1.09434 0,2.76192 0,2.76192 v 2.18869 c 0,0 -1.40702,2.18868 -2.08446,2.18868 -0.62534,0 -3.43937,0 -3.43937,0 0,0 -1.66758,-0.99012 -1.66758,0 0,0.99012 -1.14644,3.17881 -1.14644,3.17881 l 3.02247,2.13658 1.30279,-2.13658 4.01259,-2.60559 v 1.61546 l 3.96048,-0.99012 2.81401,-1.51123 2.81403,1.92813 c 0.15639,-0.0522 2.13657,0.83379 1.45914,1.04222 z m -185.15247,-53.51859 -1.7197,-2.08448 -2.44924,-0.93799 -2.81403,-1.98024 h -2.91826 l -2.13658,-1.3549 -0.41687,-2.44925 -2.44926,-3.23093 -5.00271,-3.75203 1.09436,1.40702 1.30278,1.66756 c 0,0 0.26056,1.87602 1.25068,2.6577 0.99013,0.83377 0.57322,2.65768 1.14645,3.23091 0.62534,0.62533 0.4169,2.81403 1.19856,3.43935 0.8338,0.62535 1.82391,2.03238 1.82391,2.03238 l 2.44926,-0.99012 c 0,0 2.24077,-0.36479 3.2309,0.20843 0.99013,0.57324 3.43937,2.03237 3.43937,2.03237 l 2.97038,0.10421 z m 36.42598,46.3793 -2.13658,-1.66755 -0.88589,1.407 -2.50135,-0.4169 v -2.65768 c 0,0 -0.67745,-4.22106 -0.67745,-2.60559 0,1.61546 -2.44925,4.06471 -2.44925,4.06471 l -1.61546,-1.40701 -0.4169,-3.07458 -0.93801,-2.81402 3.07461,-2.03236 3.54357,-1.51123 v -3.28304 c 0,0 -2.39712,1.19858 -3.2309,1.82392 -0.83381,0.62534 -3.38728,1.8239 -3.38728,1.8239 l -4.1168,-0.4169 1.30278,4.42949 -3.07458,-0.83378 -2.65768,-1.3028 c 0,0 -3.02249,-0.57321 -3.02249,0 0,1.09435 0,2.18869 0,2.18869 l 3.02249,2.76191 h 3.02246 c 0,0 2.13657,3.1267 2.60559,3.5436 0.46899,0.41688 1.04222,2.50135 1.04222,2.50135 h -1.98023 l -2.86614,-3.23091 1.8239,5.4717 3.02247,2.44926 c 0,0 0.4169,-2.03237 1.19858,-1.40702 0.83378,0.62533 1.19856,1.8239 2.24077,2.2408 0.99013,0.4169 3.43937,0 3.43937,0 0,0 1.87603,-1.40703 2.50136,-1.61547 0.62534,-0.20844 4.11682,-1.61546 4.11682,-1.61546 z m 14.90393,-9.38007 -2.6577,-1.19858 c 0,0 1.40701,-2.03234 1.40701,-2.60557 0,-0.57324 -0.62532,-2.81403 -0.62532,-2.81403 l -2.24081,-1.09434 h -3.64783 v 4.42949 l 2.65771,3.1267 -1.3028,3.2309 -2.91825,1.40703 -1.61544,-2.81403 c 0,0 -0.99013,-1.8239 -1.61547,-0.4169 -0.62534,1.40702 -1.61547,2.2408 -1.61547,3.23093 0,0.99011 2.81403,2.44923 2.81403,2.44923 l -1.40702,3.23093 c 0,0 -0.83378,3.23091 0,3.43936 0.8338,0.20844 3.43937,-1.19856 4.27317,-1.61545 0.83378,-0.41691 1.407,-2.34503 1.407,-2.34503 0,0 0.99012,-4.11681 2.03236,-4.11681 1.04222,0 1.19857,0 1.19857,0 l 3.85626,-2.55348 z m 6.61816,-6.61818 h -2.44924 l -4.22103,3.80414 2.13656,3.64784 c 0,0 2.50135,-2.03238 3.33514,-2.44927 0.83379,-0.36477 1.19857,-5.00271 1.19857,-5.00271 z m 17.61372,1.77179 -1.61547,-2.91825 -4.42949,-1.98024 -3.85624,-1.92811 v 4.9506 l 1.04222,3.75203 1.40702,1.09433 0.99013,-2.24079 -1.7197,-2.60557 c 0,0 1.09435,-0.99013 1.7197,-1.09437 0.62534,-0.1042 2.03234,-0.88589 2.24079,0 0.20845,0.8859 0.99011,1.87603 1.19858,2.50137 0.20843,0.67746 3.02246,0.469 3.02246,0.469 z m 14.17435,-33.7683 -1.19856,-3.85627 c 0,0 -2.81402,0.4169 -3.43937,0 -0.62533,-0.4169 -2.03236,-0.83378 -2.81402,0.83378 -0.8338,1.61548 -2.24079,2.81404 -2.24079,2.81404 l -2.81404,0.20845 -2.44924,1.66755 h -2.50135 v 2.76194 c 0,0 0.67744,3.28303 1.30277,3.49146 0.62534,0.20846 0.8338,-0.62534 2.03236,0 1.19856,0.62535 2.60559,1.61545 2.60559,1.61545 l 4.16891,-1.82388 2.55347,-1.82391 v -2.03237 l 3.17881,-2.18869 z m 83.48277,63.4198 h -0.57322 l -1.51126,-0.99013 -1.51122,-0.20843 2.60559,3.2309 0.15638,1.87602 c 0.1042,-1.19856 0.36478,-3.90836 0.8338,-3.90836 z m -45.80609,-20.94886 v 1.09434 h 1.66757 v -1.09434 h 2.76191 v -1.66758 h -4.42948 z m 2.7619,-4.42949 h -4.95059 V 556.45 h 4.95059 1.66758 v -2.7619 h -1.66758 z m -38.04145,1.98025 c 0.20844,0.20844 0.10422,0 -0.1042,-0.41691 -0.0522,0.15639 0,0.31267 0.1042,0.41691 z"
         id="path1563"
         style="display:inline;stroke-width:0.521115"
         inkscape:label="LA"
         transform="matrix(-0.21777094,0.17792603,-0.17792603,-0.21777094,258.05814,139.18452)" /><path
         style="display:none;fill:#fcbf97;stroke-width:0.32"
         d="m 190.33544,161.3358 c -3.0445,-1.55332 -8.05545,-4.17122 -11.13545,-5.81757 -11.71895,-6.26412 -19.27921,-9.60351 -30.08,-13.28642 -10.96871,-3.74017 -17.23906,-6.79752 -23.4135,-11.41616 -1.46657,-1.09703 -5.15657,-4.45569 -8.19999,-7.46368 -5.53349,-5.46908 -5.53349,-5.46908 -8,-5.03319 -1.35658,0.23973 -3.15423,0.35063 -3.99478,0.24643 -1.52828,-0.18944 -1.52828,-0.18944 -7.68,4.41228 -18.567628,13.88928 -38.97444,25.79452 -55.090423,32.13949 -8.480527,3.33884 -22.337709,7.76303 -24.314903,7.76303 -1.271362,0 -2.881189,-0.63029 -4.140839,-1.62125 -1.305374,-1.02693 -2.765556,-3.14714 -2.765556,-4.01563 0,-1.3454 1.820114,-2.85394 9.190752,-7.61747 25.001951,-16.15838 25.177016,-16.28228 36.889246,-26.10884 13.091513,-10.98377 17.338086,-13.25254 32.098712,-17.14906 5.698714,-1.50435 5.698714,-1.50435 6.619613,-3.53535 0.506496,-1.11705 1.367613,-2.65304 1.913597,-3.413307 0.992694,-1.382305 0.992694,-1.382305 0.353008,-6.320702 -2.985066,-23.044881 -3.15984,-46.81828 -0.477287,-64.922124 1.151261,-7.769541 4.59573,-22.7782835 5.73171,-24.975018 0.84033,-1.6250281 2.34741,-2.50519634 4.70275,-2.74650765 2.84097,-0.29106652 3.72058,-0.0346314 4.24181,1.23663795 0.5102,1.2443571 0.66025,3.3363854 1.46233,20.3886117 0.66729,14.186295 1.1632,18.568039 3.67598,32.480002 2.10903,11.67664 2.18159,12.265703 2.18756,17.760001 0.007,6.886979 -0.64315,10.457504 -3.74991,20.578586 -0.63793,2.078224 -1.15988,4.034784 -1.15988,4.347917 0,0.31313 0.54,1.140183 1.2,1.837895 0.66,0.697712 1.53291,1.981148 1.93979,2.852088 0.40688,0.87093 0.85007,1.79237 0.98486,2.04764 0.13479,0.25527 3.11389,1.70351 6.62021,3.21832 26.61727,11.49922 44.15879,22.01292 61.41514,36.80982 6.77188,5.80672 11.41237,10.2749 11.9113,11.46903 0.6132,1.46758 0.56863,4.42605 -0.0915,6.07592 -0.5764,1.44058 -1.79429,2.60279 -2.72748,2.60279 -0.31977,0 -3.07235,-1.27089 -6.11685,-2.82421 z m -80.86999,-51.16173 c 1.24279,-0.73414 2.01469,-2.42311 1.78066,-3.89624 -0.26337,-1.65787 -2.04136,-3.23822 -3.64141,-3.23663 -1.35889,10e-4 -3.06431,0.90907 -3.60457,1.91856 -0.47859,0.89425 -0.48755,2.9295 -0.0168,3.80916 0.93391,1.74504 3.70451,2.45518 5.48209,1.40515 z"
         id="path2307" /><path
         style="display:inline;fill:#fc843b;stroke-width:0.32"
         d="m 192.45162,161.96758 c -1.74439,-0.85384 -6.69963,-3.42649 -11.01163,-5.71701 -7.40075,-3.93123 -9.27729,-4.86953 -16.61943,-8.30992 -4.84527,-2.27041 -8.05548,-3.53076 -15.04911,-5.90841 -16.49798,-5.60887 -23.17564,-9.66587 -33.48047,-20.34099 -4.18901,-4.33954 -4.18901,-4.33954 -5.92,-3.92245 -0.95204,0.2294 -2.88378,0.42927 -4.29276,0.44415 -2.56178,0.027 -2.56178,0.027 -8.320001,4.34358 -18.075448,13.54988 -39.558647,26.06016 -55.358221,32.23667 -8.366006,3.27051 -22.365722,7.76681 -24.182828,7.76681 -1.868785,0 -5.22788,-2.47792 -6.050142,-4.46303 -0.727788,-1.75704 -0.04192,-2.38585 8.954084,-8.20916 21.531078,-13.93755 26.360233,-17.28639 32.35637,-22.43799 5.138586,-4.41483 11.919952,-9.80114 14.967833,-11.88868 5.764685,-3.94831 10.907501,-6.04615 22.105247,-9.01712 2.722813,-0.72242 5.041453,-1.36965 5.152534,-1.4383 0.111082,-0.0687 0.45896,-0.81353 0.773063,-1.65527 0.314102,-0.84175 1.143945,-2.38098 1.844099,-3.42051 1.117405,-1.65902 1.251008,-2.05056 1.093021,-3.203203 -1.60233,-11.69026 -2.463456,-23.599303 -2.674458,-36.986744 -0.202963,-12.87721 0.08514,-18.916497 1.351005,-28.320433 1.662182,-12.348078 5.310234,-27.6844453 6.940734,-29.178818 1.29527,-1.1871166 3.34462,-2.02075198 4.96769,-2.02075198 2.77574,0 2.77284,-0.0170848 3.75461,22.08000098 0.26977,6.072 0.57245,11.760001 0.67262,12.640001 0.63175,5.550317 1.87165,13.233626 4.33778,26.880001 0.38895,2.152234 0.7053,5.695994 0.81414,9.120001 0.21056,6.623542 -0.32334,10.446429 -2.48076,17.763143 -2.85974,9.698628 -2.72652,8.735427 -1.39664,10.097344 0.64375,0.659268 1.70715,2.256359 2.3631,3.549089 1.19264,2.35043 1.19264,2.35043 3.72477,3.40955 20.592,8.61312 37.74695,17.76666 51.01212,27.21905 10.05155,7.16245 25.02933,20.16571 26.1142,22.67155 0.85913,1.98442 0.33865,5.6575 -1.01337,7.15146 -0.85998,0.95027 -1.99916,0.75509 -5.4492,-0.93361 z M 110.3247,109.94459 c 1.13223,-1.03761 1.19529,-1.1993 1.19529,-3.06458 0,-1.86528 -0.0631,-2.02698 -1.19529,-3.06459 -1.0119,-0.92733 -1.42926,-1.09523 -2.72,-1.09422 -1.62449,0.001 -3.32848,0.80475 -3.87588,1.82757 -1.67744,3.13433 0.32494,6.48725 3.87588,6.49004 1.29074,9.6e-4 1.7081,-0.16689 2.72,-1.09422 z"
         id="path2305" /><path
         style="display:inline;fill:#fc5c15;stroke-width:0.32"
         d="m 192.79999,161.7945 c -1.584,-0.76584 -5.472,-2.79315 -8.64,-4.50513 -7.91951,-4.27969 -20.30291,-10.32211 -25.12,-12.25719 -2.2,-0.88376 -6.088,-2.29061 -8.64,-3.12634 -12.01624,-3.93506 -19.78322,-7.84353 -26.19513,-13.18183 -1.16867,-0.973 -4.37676,-4.00017 -7.12907,-6.72705 -5.0042,-4.95796 -5.0042,-4.95796 -6.72,-4.53658 -0.94369,0.23175 -2.7958,0.40869 -4.11579,0.39319 -1.32,-0.0155 -2.64844,0.10427 -2.95208,0.26615 -0.30365,0.16188 -3.543649,2.50192 -7.200004,5.2001 -16.24567,11.98834 -35.103573,23.25247 -48.530321,28.98793 -7.93695,3.39041 -20.182975,7.64052 -27.272977,9.46537 -2.275381,0.58565 -2.275381,0.58565 -4.066532,-0.29068 -2.01274,-0.98474 -3.818087,-2.99512 -3.818087,-4.25171 0,-0.4489 0.342,-1.14101 0.76,-1.53804 0.418,-0.39702 5.08,-3.50368 10.36,-6.90369 17.290057,-11.13377 23.330002,-15.26671 27.839999,-19.04998 11.714527,-9.82688 14.819487,-12.29092 18.493272,-14.67595 4.88745,-3.17293 9.58993,-5.19439 16.071731,-6.90879 2.109248,-0.55788 5.257721,-1.43282 6.996607,-1.9443 1.73889,-0.51149 3.195594,-0.92997 3.237124,-0.92997 0.04153,0 0.383158,-0.84376 0.759174,-1.87502 0.376016,-1.03126 1.212304,-2.56735 1.858416,-3.413542 1.174752,-1.538525 1.174752,-1.538525 0.479827,-7.484983 C 97.647723,78.74323 96.997419,67.070656 97.124239,54.240003 97.298597,36.599813 98.887,24.659336 103.25411,8.1600004 c 0.98673,-3.7279515 1.35283,-4.649046 2.18085,-5.487016 1.64474,-1.6644921 5.00895,-2.26204854 6.07891,-1.0797471 0.72676,0.8030587 0.91301,2.9664797 1.59844,18.5667637 0.63106,14.362878 1.57024,22.79178 3.85079,34.560002 0.25581,1.32 0.85294,4.704 1.32696,7.52 1.53715,9.131517 1.11476,17.287012 -1.31807,25.449374 -0.44435,1.490845 -1.26252,4.394708 -1.81815,6.453028 -1.01024,3.7424 -1.01024,3.7424 0.60941,5.514554 0.89081,0.974681 1.87155,2.458601 2.17942,3.297601 0.30788,0.83899 0.71673,1.67943 0.90855,1.86763 0.19183,0.18821 1.86077,0.97038 3.70877,1.73817 18.13246,7.53348 36.09322,17.08762 48.64,25.87383 9.87106,6.91245 24.96998,19.72166 27.12636,23.01271 0.97154,1.48276 0.42506,6.36635 -0.82283,7.35311 -0.818,0.64683 -1.65691,0.46749 -4.70353,-1.00551 z m -82.87184,-51.07954 c 2.80348,-1.73264 2.69005,-6.09567 -0.2029,-7.80458 -1.88662,-1.11445 -4.97858,-0.34743 -6.21668,1.54216 -2.58242,3.94127 2.36545,8.76801 6.41958,6.26242 z"
         id="path2303" /><path
         style="display:inline;fill:#f95902;stroke-width:0.32"
         d="m 188.8642,159.46805 c -23.19606,-11.94769 -29.26554,-14.76198 -37.98421,-17.61247 -12.1238,-3.96377 -19.4789,-7.59177 -26.08,-12.86433 -1.144,-0.91375 -4.47301,-4.04126 -7.3978,-6.95001 -5.3178,-5.28863 -5.3178,-5.28863 -6.72,-4.89661 -0.77121,0.21561 -2.62703,0.40627 -4.12406,0.4237 -2.56148,0.0298 -2.88964,0.11653 -5.56923,1.47168 -1.59966,0.80899 -2.912261,1.68539 -2.995458,2 -0.08145,0.308 -0.265459,0.56 -0.408909,0.56 -0.143453,0 -0.882656,0.51245 -1.642678,1.13879 -6.136371,5.05701 -12.873737,9.65999 -23.941858,16.35712 -17.275804,10.45329 -30.219612,16.15905 -49.561612,21.84725 -3.808574,1.12004 -4.481372,1.17267 -5.894277,0.46101 -1.131103,-0.56971 -3.104109,-2.33023 -3.104109,-2.7698 0,-0.15405 -0.216,-0.49609 -0.48,-0.76009 -0.682757,-0.68276 -0.616871,-0.88781 0.639789,-1.99117 1.291733,-1.13416 2.243052,-1.05549 1.93792,0.16026 -0.162016,0.64552 -0.07153,0.75663 0.616195,0.75663 0.503197,0 0.806096,-0.18037 0.806096,-0.48 0,-0.264 0.252,-0.49102 0.56,-0.50449 1.305949,-0.0571 1.810903,-0.31336 2.847579,-1.44514 0.833227,-0.90968 1.184279,-1.10651 1.467789,-0.82301 0.560943,0.56095 1.633175,0.47706 1.407845,-0.11014 -0.293463,-0.76476 0.331181,-2.00093 1.138456,-2.25301 0.406082,-0.12681 1.211341,-0.64313 1.789466,-1.14739 0.578124,-0.50425 1.362924,-0.91682 1.743999,-0.91682 0.538896,0 0.607532,-0.0853 0.308866,-0.384 -0.540639,-0.54064 -0.480505,-0.82184 0.260567,-1.21845 0.492203,-0.26342 0.624578,-0.24896 0.56,0.0611 -0.04651,0.22335 0.239433,0.45554 0.635433,0.51596 0.396,0.0604 0.72,-0.0442 0.72,-0.23241 0,-0.18824 -0.144,-0.34225 -0.32,-0.34225 -0.518222,0 -0.365663,-1.04119 0.316492,-2.16 0.729157,-1.19591 1.143267,-1.26882 2.201191,-0.38755 0.628284,0.52337 0.688809,0.71415 0.3544,1.11709 -0.568522,0.68502 -0.179149,0.93181 0.460684,0.29198 0.298893,-0.2989 0.449018,-0.78082 0.345165,-1.10804 -0.206371,-0.65021 0.884791,-1.59348 1.843312,-1.59348 0.318362,0 0.661728,-0.216 0.763034,-0.48 0.101309,-0.264 0.502819,-0.48 0.892249,-0.48 0.389434,0 1.021072,-0.36 1.403648,-0.8 0.382576,-0.44 0.940771,-0.8 1.240432,-0.8 0.939152,0 6.186627,-2.88843 8.210944,-4.51964 1.065011,-0.8582 2.115744,-1.56036 2.334956,-1.56036 0.219213,0 0.587776,-0.396 0.819028,-0.88 0.237433,-0.49694 0.732873,-0.92456 1.138163,-0.98235 0.394736,-0.0563 0.882275,-0.41629 1.083417,-0.8 0.201143,-0.38371 0.959578,-1.27365 1.685415,-1.97765 1.394326,-1.35238 2.611008,-3.03866 2.194844,-3.04197 -0.136057,-9.6e-4 0.16328,-0.21616 0.665197,-0.47793 0.508333,-0.26512 1.251194,-0.39096 1.677018,-0.28408 0.79416,0.19932 0.864873,0.11008 1.228316,-1.5502 0.120231,-0.54923 0.570413,-1.0702 1.211082,-1.4015 1.184819,-0.61269 1.893248,-1.25542 1.650886,-1.49778 -0.210035,-0.21004 2.128247,-1.82654 2.642099,-1.82654 0.205373,0 0.68504,-0.59789 1.065923,-1.32863 0.550996,-1.05711 0.606647,-1.38175 0.272311,-1.58856 -0.296819,-0.18362 -0.114826,-0.36646 0.619792,-0.62268 0.572,-0.19951 1.04,-0.49477 1.04,-0.65614 0,-0.47828 1.959843,-1.52569 2.521782,-1.34773 0.420122,0.13304 0.433338,0.10373 0.06981,-0.15488 -0.35048,-0.24933 -0.140832,-0.47918 0.96,-1.05253 5.683373,-2.96009 9.076118,-4.19717 18.446409,-6.72602 5.198003,-1.40283 5.198003,-1.40283 5.697539,-2.89821 0.274742,-0.82245 0.707641,-1.66808 0.961993,-1.87918 0.254356,-0.2111 0.462464,-0.53258 0.462464,-0.71442 0,-0.18184 0.364964,-0.8091 0.811028,-1.393927 0.811028,-1.063312 0.811028,-1.063312 0.576537,-5.790205 -0.337865,-6.810695 -0.314438,-7.507575 0.264651,-7.872855 0.27544,-0.173741 0.72103,-0.23138 0.99021,-0.128087 0.54307,0.208397 2.14326,3.411687 2.97578,5.95698 0.29626,0.905734 0.67342,1.730089 0.83815,1.831897 0.16473,0.101812 1.19144,0.221031 2.28158,0.264938 2.43078,0.0979 4.35606,0.615962 5.43076,1.461319 0.44674,0.351404 0.99834,0.638915 1.22578,0.638915 0.26746,0 0.30377,0.109757 0.10279,0.310733 -0.20097,0.200976 -0.86388,0.144259 -1.87676,-0.160573 -1.64346,-0.494608 -2.10721,-0.450323 -1.40156,0.133837 3.58661,2.969113 4.46643,3.846918 4.76692,4.756008 0.18908,0.572 0.44683,1.04 0.5728,1.04 0.12597,0 0.7129,1.01315 1.30429,2.25146 0.5914,1.2383 1.21326,2.33676 1.38193,2.441 0.388,0.23979 0.91673,-0.56058 0.72175,-1.09258 -0.1046,-0.28541 0.19453,-0.25124 1.04336,0.11916 0.6545,0.28561 1.94572,0.82566 2.86937,1.20012 0.92365,0.37446 1.67965,0.85632 1.68,1.07079 3.2e-4,0.21448 0.18839,0.31791 0.41787,0.22985 0.44381,-0.17031 3.06322,0.96779 5.18276,2.25183 0.704,0.42649 1.568,0.92899 1.92,1.11665 0.352,0.18767 1.072,0.61655 1.6,0.95308 0.528,0.33652 1.32,0.62559 1.76,0.64236 0.44,0.0168 1.16,0.3121 1.6,0.65628 0.44,0.34417 1.03437,0.62897 1.32082,0.63288 0.28645,0.004 0.70008,0.22312 0.91918,0.48712 0.2191,0.264 0.6511,0.48 0.96,0.48 0.3089,0 0.74805,0.22461 0.97589,0.49913 0.50884,0.61312 2.78927,1.74087 3.52022,1.74087 0.29474,0 1.07949,0.432 1.74389,0.96 0.66441,0.528 1.42321,0.96 1.68623,0.96 0.5206,0 2.41242,1.06072 3.43377,1.92527 0.62236,0.52682 2.03189,1.30244 4.32,2.37718 0.616,0.28934 1.552,0.80596 2.08,1.14805 0.528,0.34209 1.18072,0.73167 1.45049,0.86574 0.26976,0.13407 0.84576,0.50117 1.28,0.81578 1.81427,1.3145 3.69478,2.45671 4.05361,2.46215 0.21126,0.003 0.49926,0.18668 0.64,0.40772 0.43773,0.68745 2.64481,2.20273 2.9414,2.01943 0.15496,-0.0958 0.36042,0.12674 0.45658,0.49447 0.0962,0.36773 0.32562,0.57542 0.5099,0.46152 0.31583,-0.19519 0.90765,0.20511 5.62173,3.80236 1.05253,0.80318 2.00585,1.46033 2.11848,1.46033 0.11263,0 0.97947,0.76161 1.9263,1.69247 0.94683,0.93087 2.32668,2.09772 3.06633,2.59301 0.73965,0.49528 1.57097,1.24567 1.84738,1.66752 0.2764,0.42185 0.80072,0.767 1.16514,0.767 0.39346,0 0.73056,0.25995 0.82994,0.64 0.0921,0.352 0.29361,0.64 0.44791,0.64 0.15429,0 1.28057,1.008 2.50283,2.24 1.22226,1.232 2.36552,2.24 2.54057,2.24 0.17506,0 0.41231,0.29625 0.52723,0.65833 0.11492,0.36208 0.54493,0.78607 0.95557,0.9422 0.41064,0.15612 0.93832,0.68366 1.17262,1.1723 0.23429,0.48864 0.78154,1.06566 1.21611,1.28227 0.96644,0.48172 1.62094,2.19566 1.78484,4.67399 0.15974,2.41539 -0.22588,3.43091 -1.30283,3.43091 -0.45303,0 -3.8046,-1.53538 -7.44792,-3.41196 z m -78.74422,-48.56851 c 5.19575,-3.5306 0.41924,-11.025842 -5.19969,-8.15928 -2.3622,1.2051 -3.17978,4.58417 -1.61923,6.69224 1.70895,2.30853 4.64954,2.94117 6.81892,1.46704 z m -94.221674,43.77211 c -0.208335,-0.20834 0.688611,-1.04225 1.141693,-1.06147 0.459677,-0.0195 0.236407,0.88273 -0.266172,1.07559 -0.625604,0.24007 -0.62126,0.24014 -0.875521,-0.0141 z m 2.340877,-0.91379 c -0.394864,-1.03857 -0.208447,-1.36989 0.459065,-0.8159 0.260544,0.21623 0.624024,0.30025 0.807733,0.18671 0.583485,-0.36061 0.359582,0.34901 -0.297845,0.94397 -0.612671,0.55446 -0.642103,0.5449 -0.968953,-0.31478 z"
         id="path2301" /><path
         style="display:inline;fill:#f54702;stroke-width:0.32"
         d="m 175.57333,149.22667 c -0.4057,-0.40569 -0.21085,-0.74666 0.42666,-0.74666 0.35556,0 0.64,0.21333 0.64,0.48 0,0.48717 -0.67693,0.6564 -1.06666,0.26666 z m -5.97334,-3.62666 c -0.53219,-0.74739 -0.92679,-0.96 -1.78179,-0.96 -0.88487,0 -1.09821,-0.12433 -1.09821,-0.64 0,-0.42667 -0.21333,-0.64 -0.64,-0.64 -0.36778,0 -0.64,0.21333 -0.64,0.50156 0,0.57801 -1.09537,0.36436 -1.94519,-0.37941 -0.27786,-0.24319 -0.61885,-0.44215 -0.75776,-0.44215 -0.13891,0 -0.74458,-0.432 -1.34594,-0.96 -1.22305,-1.07386 -1.76622,-1.18475 -2.35111,-0.48 -0.2191,0.264 -0.5791,0.48 -0.8,0.48 -0.2209,0 -0.5809,-0.216 -0.8,-0.48 -0.2191,-0.264 -0.66968,-0.48 -1.0013,-0.48 -0.33161,0 -0.91595,-0.36 -1.29852,-0.8 -0.84842,-0.97577 -1.13421,-0.99232 -2.06327,-0.11952 -0.84267,0.79165 -1.71691,0.60359 -1.71691,-0.36932 0,-0.36792 -0.13528,-0.58532 -0.30063,-0.48313 -0.16535,0.10219 -0.65145,-0.19253 -1.08021,-0.65494 -0.50211,-0.5415 -0.85741,-0.7148 -0.99825,-0.48691 -0.42953,0.69499 -1.95833,0.37765 -2.89609,-0.60116 -0.80342,-0.83858 -1.06588,-0.93084 -2.15341,-0.75694 -1.00666,0.16097 -1.37934,0.0657 -1.99101,-0.50892 -0.62269,-0.58499 -0.85679,-0.64186 -1.3568,-0.3296 -0.51175,0.3196 -0.76707,0.22528 -1.66777,-0.6161 -1.25002,-1.16769 -1.50263,-1.21739 -1.73189,-0.34069 -0.14034,0.53666 -0.33029,0.61273 -1.06781,0.42762 -1.32604,-0.33281 -2.99613,-1.39859 -2.99613,-1.912 0,-0.24662 -0.18775,-0.44839 -0.41722,-0.44839 -0.22948,0 -0.91348,-0.51275 -1.52,-1.13945 -0.60653,-0.62669 -1.67878,-1.39529 -2.38278,-1.70799 -0.704,-0.31271 -1.46529,-0.79309 -1.69176,-1.06752 -0.22647,-0.27444 -0.6724,-0.43082 -0.99095,-0.34751 -0.37427,0.0979 -0.87224,-0.19684 -1.40757,-0.83304 -0.45562,-0.54147 -1.04843,-0.98449 -1.31735,-0.98449 -0.68379,0 -9.73679,-8.36137 -10.45091,-9.65248 -0.2348,-0.42451 0.0243,-0.76149 1.27761,-1.66194 1.72903,-1.24218 4.7262,-4.97234 5.03386,-6.26493 0.34191,-1.43652 0.75269,-1.7215 1.5151,-1.0511 0.36959,0.32498 1.96797,1.22845 3.55197,2.00771 1.584,0.77926 2.928,1.52616 2.98667,1.65979 0.0587,0.13362 0.34667,0.24356 0.64,0.24432 0.29333,6.4e-4 1.18133,0.43763 1.97333,0.97085 1.84243,1.24042 2.88012,1.70695 5.40574,2.43035 1.64538,0.47128 2.17769,0.79186 2.72,1.63813 0.37085,0.5787 1.00054,1.13747 1.39933,1.2417 0.39878,0.10424 0.97572,0.49734 1.28209,0.87356 1.09538,1.34514 1.55305,1.56247 2.32154,1.10241 0.60965,-0.36497 0.7456,-0.33939 1.06508,0.20034 0.61956,1.04672 2.39966,2.74129 2.87965,2.74129 0.25012,0 1.18744,0.504 2.08295,1.12 0.89551,0.616 1.85219,1.12 2.12595,1.12 0.27377,0 0.58065,0.216 0.68195,0.48 0.10694,0.27866 0.58577,0.48 1.14157,0.48 0.65114,0 1.24424,0.30708 1.85415,0.96 0.49323,0.528 1.05004,0.96 1.23736,0.96 0.18731,0 0.78251,0.432 1.32264,0.96 0.54014,0.528 1.19689,0.96 1.45946,0.96 0.26256,0 1.12538,0.648 1.91738,1.44 0.792,0.792 1.69727,1.44 2.01171,1.44 0.31444,0 0.9893,0.43586 1.49967,0.96858 0.51038,0.53272 1.14932,0.94813 1.41987,0.92315 0.89508,-0.0827 1.29191,0.0243 1.29191,0.34827 0,0.48971 1.21961,1.6 1.75753,1.6 0.26264,0 0.86661,0.43667 1.34216,0.97038 0.47553,0.53372 1.04212,0.90228 1.25907,0.81902 0.21694,-0.0832 0.56005,0.0482 0.76244,0.29204 0.2024,0.24388 1.08301,0.90223 1.95692,1.46301 0.8739,0.56079 1.80253,1.4327 2.06362,1.93758 0.35792,0.69215 0.70419,0.91797 1.40759,0.91797 0.5131,0 1.00602,0.11831 1.09539,0.26292 0.2093,0.33864 -0.95061,1.33708 -1.55332,1.33708 -0.25371,0 -0.82747,0.16685 -1.27504,0.37077 -0.67802,0.30893 -0.92073,0.27396 -1.45506,-0.2096 -0.35271,-0.3192 -0.6413,-0.42459 -0.6413,-0.23421 0,0.45594 -1.82159,1.35304 -2.74737,1.35304 -0.44481,0 -0.99556,-0.37428 -1.41263,-0.96 z m -0.93315,-2.72 c 0.004,-0.176 -0.22506,-0.36818 -0.50864,-0.42707 -0.74973,-0.15568 -1.51293,0.20727 -1.26827,0.60315 0.25811,0.41763 1.76726,0.26808 1.77691,-0.17608 z M 60.905812,141.25419 c -0.125972,-0.32827 -9.6e-4,-0.64735 0.324748,-0.8297 0.291191,-0.16296 0.529437,-0.50513 0.529437,-0.76038 0,-0.27353 0.308138,-0.4641 0.750403,-0.4641 0.412723,0 1.01201,-0.28907 1.331747,-0.64238 0.672666,-0.74329 2.264864,-1.59375 3.007015,-1.60618 0.28096,-0.005 1.143689,-0.58842 1.917177,-1.29714 0.773485,-0.70872 1.961485,-1.57179 2.64,-1.91794 0.678512,-0.34616 1.233658,-0.75598 1.233658,-0.91073 0,-0.15475 0.737907,-0.54671 1.639792,-0.87102 0.901884,-0.32431 1.711334,-0.7761 1.798777,-1.00397 0.222685,-0.58031 1.811411,-1.35064 2.785539,-1.35064 0.448739,0 1.115606,-0.29972 1.481926,-0.66604 0.628032,-0.62803 0.700167,-0.63514 1.264231,-0.12467 0.551968,0.49952 0.559453,0.60049 0.09686,1.3065 -0.275737,0.42083 -0.952643,0.8799 -1.50423,1.02016 -0.563901,0.14339 -1.142813,0.56723 -1.322544,0.96829 -0.215491,0.48084 -0.893277,0.89139 -2.08,1.25988 -0.968192,0.30064 -1.806208,0.65028 -1.862256,0.77697 -0.05605,0.12669 -0.8284,0.75228 -1.716332,1.3902 -1.188279,0.85369 -1.816007,1.10926 -2.378093,0.96818 -0.616022,-0.15461 -0.763667,-0.0668 -0.763667,0.45443 0,0.50455 -0.210314,0.6461 -0.96,0.6461 -0.728583,0 -0.96,0.14602 -0.96,0.60576 0,0.66218 -0.592794,0.99424 -1.774912,0.99424 -0.426762,0 -0.908634,0.27292 -1.094253,0.61975 -0.200073,0.37384 -0.744185,0.65954 -1.371261,0.72 -0.657817,0.0634 -1.007286,0.25587 -0.951644,0.52403 0.04836,0.23308 -0.05667,0.33443 -0.233389,0.22521 -0.176723,-0.10923 -0.614426,-0.0417 -0.972675,0.15001 -0.523123,0.27997 -0.691661,0.24358 -0.856051,-0.18482 z M 76.32336,127.68545 c -0.106922,-0.17301 -0.0994,-0.82101 0.01674,-1.44 0.232064,-1.23701 -0.250461,-1.54981 -0.801744,-0.51973 -0.196551,0.36726 -0.799367,0.67205 -1.531258,0.77423 -0.663901,0.0927 -1.639091,0.26309 -2.167091,0.37869 -0.96,0.21017 -0.96,0.21017 -0.16,-0.44712 0.44,-0.3615 1.1192,-0.66048 1.509334,-0.6644 0.390132,-0.004 1.213332,-0.51111 1.829332,-1.12711 0.615999,-0.616 1.373747,-1.12 1.683878,-1.12 0.310134,0 1.552336,-0.37771 2.760448,-0.83936 1.979436,-0.75638 2.182105,-0.91502 2.050246,-1.60481 -0.114301,-0.59792 0.01786,-0.80666 0.603776,-0.95372 0.610394,-0.1532 0.691914,-0.29698 0.437693,-0.77201 -0.379322,-0.70875 -0.09136,-1.5901 0.519523,-1.5901 0.504608,0 0.591629,-1.19388 0.139168,-1.90927 -0.393008,-0.62139 0.175443,-1.29073 1.096182,-1.29073 0.782019,0 1.770413,-0.90901 1.770413,-1.62823 0,-0.2518 -0.285165,-0.63591 -0.633696,-0.85358 -0.541142,-0.33794 -0.580378,-0.51277 -0.268637,-1.19697 0.200784,-0.44067 0.593949,-0.8058 0.873699,-0.8114 0.711405,-0.0142 1.531975,-0.6964 1.6713,-1.3894 0.08766,-0.43601 1.007631,-0.85607 3.637334,-1.66083 4.57126,-1.39893 4.639558,-1.39745 4.641785,0.10041 0.0032,2.17552 0.892653,4.41223 1.509296,3.79558 0.103677,-0.10367 0.225693,-0.91644 0.271149,-1.80614 0.04545,-0.88971 0.338531,-2.0073 0.65128,-2.48355 0.312749,-0.47624 0.539584,-1.25243 0.50408,-1.72486 -0.0355,-0.47243 0.08101,-0.94893 0.258928,-1.05888 0.177917,-0.10996 0.323481,-0.53384 0.323481,-0.94196 0,-1.24395 1.304161,-3.826128 2.320001,-4.593472 0.308,-0.232656 0.56,-0.625782 0.56,-0.87361 0,-0.721616 1.09822,-1.113632 3.09896,-1.106195 2.02382,0.0075 4.3432,0.991955 6.12156,2.598221 0.51462,0.464826 1.23641,0.940583 1.60396,1.057242 0.36755,0.116654 1.13289,1.032344 1.70076,2.034864 0.56787,1.00252 1.12783,1.89476 1.24435,1.98276 0.11653,0.088 0.31772,0.592 0.4471,1.12 0.12937,0.528 0.51154,1.2176 0.84927,1.53246 0.62209,0.57998 0.73434,1.02431 0.62336,2.46754 -0.0826,1.07434 -1.40876,3.31432 -2.31621,3.9123 -0.40321,0.26571 -1.44076,1.13443 -2.30566,1.93049 -1.89463,1.74383 -3.29477,2.2166 -7.00345,2.3648 -1.64728,0.0658 -3.19624,0.30915 -3.73218,0.58629 -0.83582,0.43222 -1.0594,0.41425 -2.54925,-0.2049 -1.469972,-0.61089 -1.688471,-0.63004 -2.187819,-0.19168 -0.305113,0.26785 -0.914752,0.59618 -1.354751,0.72963 -1.404759,0.42607 -2.86794,1.33142 -3.547056,2.19478 -0.362669,0.46106 -0.935725,0.83829 -1.273459,0.83829 -0.337735,0 -0.79392,0.288 -1.013748,0.64 -0.436572,0.69906 -1.083971,0.8453 -1.270108,0.28689 -0.155271,-0.46582 -2.440592,0.47646 -2.998928,1.2365 -0.374778,0.51017 -0.436919,0.48319 -0.744874,-0.32339 -0.184793,-0.484 -0.555552,-0.88 -0.823907,-0.88 -0.623536,0 -0.615891,0.086 0.148144,1.66741 0.476666,0.98658 0.547037,1.42377 0.280816,1.74454 -0.48784,0.58782 -1.119757,0.5363 -1.618736,-0.13195 -0.229977,-0.308 -0.613302,-0.60106 -0.851827,-0.65123 -0.682173,-0.1435 -1.360934,0.59804 -1.151478,1.25798 0.26254,0.8272 -0.636624,1.10626 -1.988896,0.61727 -1.020752,-0.36911 -1.136599,-0.34051 -1.742912,0.43029 -0.669629,0.8513 -1.379104,1.06217 -1.719667,0.51113 z m 33.67956,-16.64372 c 1.69605,-1.03409 2.37217,-2.41299 2.23462,-4.55734 -0.12795,-1.99474 -0.8264,-3.06254 -2.60989,-3.99007 -1.31567,-0.68424 -3.95587,-0.41687 -5.29427,0.53615 -2.79886,1.99297 -2.58704,6.19986 0.404,8.02362 1.37461,0.83815 3.88025,0.83227 5.26554,-0.0124 z m -9.10389,-15.24522 c -0.27534,-0.717516 0.18482,-1.34894 1.56742,-2.150781 1.16977,-0.678409 1.16977,-0.678409 1.93228,0.03793 0.62334,0.585597 1.13839,0.718199 2.82189,0.726519 1.36705,0.0068 2.27453,0.178176 2.69937,0.509901 0.59162,0.461942 0.47067,0.4844 -1.6,0.29704 -1.75732,-0.159005 -2.72245,-0.06202 -4.47898,0.450102 -2.69671,0.786234 -2.69,0.785939 -2.94198,0.129286 z"
         id="path2299" /></g></g></svg>
